<svg width="160" height="159" viewBox="0 0 160 159" fill="none" xmlns="http://www.w3.org/2000/svg">
<path d="M6.11492 0.280441C4.58139 0.683655 4.14324 0.931793 2.48452 2.45166C-1.58403 6.14273 -0.488653 13.2767 4.55009 15.6651L6.14621 16.4405L6.2401 43.922C6.33399 70.4729 6.36529 71.4655 6.92863 72.0858C7.61715 72.8613 9.21327 72.9543 10.1209 72.3029C10.6842 71.8687 10.7155 71.1553 10.872 48.1714L11.0285 24.5051L16.1298 24.412L21.1998 24.35V88.2459C21.1998 123.389 21.1686 152.142 21.1373 152.142C21.0747 152.142 20.3548 151.925 19.5098 151.677C17.2252 150.994 14.3146 151.087 11.5918 151.956L10.872 152.173V115.572C10.872 79.3439 10.872 78.9407 10.2461 78.3203C9.30716 77.3898 7.64845 77.4829 6.83474 78.5064C6.17751 79.3439 6.17751 79.3439 6.17751 118.085V156.857L7.11641 157.787C7.89882 158.531 8.24308 158.687 8.93161 158.5C9.40105 158.407 9.99569 158.128 10.2461 157.88C13.0002 155.523 18.1954 155.275 21.1373 157.415C23.1089 158.811 23.5471 158.842 25.5501 157.632C28.8675 155.585 32.3414 155.337 35.2207 156.981C38.4755 158.811 38.3191 158.78 39.6022 158.066C42.8571 156.236 43.5456 156.019 45.9241 156.019C48.334 156.019 48.7095 156.143 52.0269 158.035C53.4353 158.842 52.9971 158.935 56.5962 156.95C58.0672 156.143 58.5992 156.019 60.79 156.019C62.9807 156.019 63.5128 156.143 64.9837 156.95C65.8913 157.477 67.018 158.066 67.4248 158.283C68.4263 158.842 69.8034 158.314 70.3041 157.229C70.5545 156.67 70.6484 150.87 70.6484 137.253V118.023H80.1938H89.7393V137.253C89.7393 150.87 89.8332 156.67 90.0835 157.229C90.3026 157.632 90.8347 158.159 91.3354 158.345C92.1178 158.687 92.4308 158.625 93.8704 157.849C95.3727 157.043 95.8108 156.981 98.3458 157.012C100.255 157.043 102.164 157.291 104.261 157.849L107.391 158.656L108.329 158.035C110.802 156.453 112.085 156.05 114.464 156.019C116.873 156.019 117.687 156.298 120.754 158.097C121.975 158.842 121.85 158.873 125.167 156.981C127.89 155.43 131.927 155.616 134.431 157.415C136.402 158.811 136.841 158.842 138.844 157.632C142.161 155.585 145.635 155.337 148.514 156.981C151.706 158.78 151.738 158.811 152.614 158.314C153.052 158.066 153.584 157.508 153.803 157.105C154.116 156.484 154.21 141.689 154.21 86.2918V16.2854L154.93 16.0063C156.432 15.4169 158.154 13.8351 159.061 12.2222C159.875 10.7643 160 10.237 160 8.2209C159.969 5.46034 159.343 4.00253 157.34 2.20352C155.525 0.590607 154.116 0.0633087 151.706 0.0633087C148.358 0.0633087 145.228 2.04843 144.007 4.99509L143.569 6.04968H80.0373H16.5054L16.0672 4.99509C14.5337 1.36604 9.96439 -0.805176 6.11492 0.280441ZM10.559 5.39832C11.5605 6.11171 12.249 7.94174 11.9987 9.02736C11.8735 9.49261 11.3101 10.3301 10.7155 10.9194C9.93309 11.6949 9.43235 11.943 8.52475 11.943C7.02252 11.943 5.67677 11.1365 5.08213 9.89584C4.4562 8.56209 4.4875 7.63156 5.23861 6.42189C6.39659 4.56084 8.77512 4.09558 10.559 5.39832ZM153.115 4.93304C154.304 5.42934 155.462 7.04224 155.462 8.15886C155.462 10.175 153.647 11.943 151.581 11.943C150.142 11.943 148.358 10.4542 148.076 8.99634C147.794 7.50749 148.733 5.7395 150.142 5.05711C151.456 4.37474 151.738 4.37474 153.115 4.93304ZM21.1998 15.1998V19.6974H16.0359H10.872V17.9914C10.872 16.3165 10.9033 16.2854 12.0926 15.6651C13.6887 14.8586 15.4413 13.0596 15.942 11.7569L16.3176 10.7023H18.7587H21.1998V15.1998ZM36.2222 15.1998V19.6974H31.0583H25.8943V15.1998V10.7023H31.0583H36.2222V15.1998ZM50.9316 15.1998V19.6974H45.9241H40.9167V15.1998V10.7023H45.9241H50.9316V15.1998ZM65.9539 15.1998V19.6974H60.79H55.626V15.1998V10.7023H60.79H65.9539V15.1998ZM89.7393 61.8811V113.06H80.1938H70.6484V61.8811V10.7023H80.1938H89.7393V61.8811ZM104.762 15.1998V19.6974H99.5977H94.4338V15.1998V10.7023H99.5977H104.762V15.1998ZM119.471 15.1998V19.6974H114.464H109.456V15.1998V10.7023H114.464H119.471V15.1998ZM134.493 15.1998V19.6974H129.329H124.165V15.1998V10.7023H129.329H134.493V15.1998ZM144.133 11.7569C144.633 13.1217 146.636 15.0758 148.232 15.8202C149.516 16.3785 149.516 16.4095 149.516 18.0534V19.6974H144.352H139.188V15.1998V10.7023H141.472H143.757L144.133 11.7569ZM36.1596 88.339L36.2222 152.173L35.5337 151.956C32.8109 151.087 30.0255 150.994 27.553 151.646L25.8943 152.08V88.2149V24.35L30.9957 24.412L36.0657 24.5051L36.1596 88.339ZM50.9316 88.2149V152.049L49.3041 151.646C47.2073 151.087 44.641 151.087 42.5441 151.646L40.9167 152.049V88.2149V24.35H45.9241H50.9316V88.2149ZM65.8913 88.339L65.9539 152.173L65.2654 151.956C62.167 150.963 59.4129 150.963 56.3459 151.956L55.626 152.173V88.463C55.626 53.4443 55.7199 24.6601 55.8451 24.5361C55.9703 24.443 58.255 24.381 60.9152 24.412L65.7974 24.5051L65.8913 88.339ZM104.699 88.339L104.762 152.173L104.073 151.956C100.975 150.963 98.2206 150.963 95.1536 151.956L94.4338 152.173V88.2459V24.35L99.5351 24.412L104.605 24.5051L104.699 88.339ZM119.471 48.6987C119.471 69.4804 119.534 73.2025 119.94 73.9469C120.66 75.3737 122.006 75.6218 123.352 74.5672L124.165 73.9469L124.228 49.226L124.322 24.5051L129.423 24.412L134.493 24.35V88.2459C134.493 123.389 134.462 152.142 134.431 152.142C134.368 152.142 133.648 151.925 132.803 151.677C130.519 150.994 127.608 151.087 124.885 151.956L124.165 152.173V116.968C124.165 82.1355 124.165 81.7322 123.54 81.1119C122.695 80.2744 121.005 80.3055 120.222 81.1429C119.659 81.7633 119.627 82.8799 119.534 116.937L119.471 152.049L117.844 151.646C115.747 151.087 113.18 151.087 111.084 151.646L109.456 152.049V88.2149V24.35H114.464H119.471V48.6987ZM149.453 88.339L149.516 152.173L148.827 151.956C146.073 151.087 143.162 150.994 140.878 151.677C140.033 151.925 139.313 152.142 139.282 152.142C139.219 152.142 139.188 123.389 139.188 88.2459V24.35L144.289 24.412L149.359 24.5051L149.453 88.339Z" fill="#394A59"/>
</svg>
