<svg width="162" height="177" viewBox="0 0 162 177" fill="none" xmlns="http://www.w3.org/2000/svg">
<path fill-rule="evenodd" clip-rule="evenodd" d="M140.932 34.5507H21.5427V17.5474H140.932V34.5507ZM140.932 51.554V34.5507H146.267V51.554H140.932ZM140.932 68.5574H21.5427V51.554H140.932V68.5574ZM140.932 85.5607V68.5574H146.267V85.5607H140.932ZM140.932 102.564H21.5427V85.5607H140.932V102.564ZM140.932 119.567V102.564H146.267V119.567H140.932ZM140.932 136.571H21.5427V119.567H140.932V136.571ZM140.932 153.574V136.571H146.267V153.574H140.932ZM21.5427 170.58V153.574H140.932V170.577L21.5427 170.58ZM150.172 170.58V17.5474L155.923 17.547C159.046 17.547 161.593 15.0003 161.593 11.8777V6.01866C161.593 2.89601 159.046 0.349365 155.923 0.349365H6.21714C3.0945 0.349365 0.547852 2.89601 0.547852 6.01866V11.8777V43.4246C0.547852 44.8817 1.73651 46.0703 3.19352 46.0703H3.57147C5.02848 46.0703 6.21714 44.8817 6.21714 43.4246V17.547L17.6377 17.5474V170.58H13.074V176.249H154.736V170.58H150.172ZM155.923 11.8777H6.21714V6.01866H155.923V11.8777Z" fill="#394A59"/>
</svg>
