<svg width="162" height="176" viewBox="0 0 162 176" fill="none" xmlns="http://www.w3.org/2000/svg">
<path fill-rule="evenodd" clip-rule="evenodd" d="M5.66947 5.6695H155.376V11.5287H5.66947V5.6695ZM17.09 17.1973H65.2818V169.804H17.09V17.1973ZM70.9513 17.1977H112.741V168.18H70.9513V17.1977ZM118.41 17.1977H147.493V166.666H118.41V17.1977ZM5.66947 0H155.376C158.499 0 161.045 2.54674 161.045 5.6695V11.5287C161.045 14.6515 158.499 17.1982 155.376 17.1982L153.162 17.1862V172.336H115.575V173.85H68.1163V175.474H11.4205V17.1982H5.66901V43.0758C5.66901 44.5327 4.48013 45.7216 3.02327 45.7216H2.64525C1.18839 45.7216 -0.000488281 44.5327 -0.000488281 43.0758V11.5287V5.6695C-0.000488281 2.54674 2.54625 0 5.66901 0L5.66947 0Z" fill="#394A59"/>
</svg>
