<svg width="140" height="160" viewBox="0 0 140 160" fill="none" xmlns="http://www.w3.org/2000/svg">
<path d="M3.90625 0.59375C1.375 1.75 0.625 3.40625 0.625 7.71875C0.625 11.0625 1.125 12.6875 2.53125 13.9688C3.84375 15.1562 4.84375 15.3125 10.8125 15.3125C13.9688 15.3125 16.5625 15.375 16.5625 15.4688C16.5625 15.5312 15.875 16.6875 15 18C13.75 19.9062 13.4375 20.6562 13.4375 21.6875C13.4375 23.25 14.3438 24.8125 15.625 25.4688C16.5938 25.9688 16.5938 25.9688 16.0625 26.8125C14.0625 29.8125 13.4375 31.125 13.4375 32.2812C13.4375 33.8125 14.4062 35.4375 15.625 35.9375C16.1562 36.1562 16.5625 36.4062 16.5625 36.5C16.5625 36.5938 15.8438 37.7812 14.9688 39.125C13.4375 41.4375 13.375 41.6562 13.5 43.1875C13.6562 44.5312 13.8438 44.9688 14.75 45.7812C15.3438 46.3438 16 46.8438 16.25 46.9375C16.5 47 16.125 47.8438 15.0312 49.5C13.7812 51.4375 13.4375 52.2188 13.4375 53.25C13.4375 54.8125 14.3125 56.375 15.625 57.0312C16.125 57.2812 16.5625 57.5938 16.5625 57.6562C16.5625 57.7188 15.875 58.875 15 60.1875C13.75 62.0938 13.4375 62.8438 13.4375 63.875C13.4375 65.4688 14.3125 66.9688 15.5938 67.5312C16.125 67.7812 16.5625 68.0312 16.5625 68.125C16.5625 68.2188 15.8438 69.3438 15 70.625C13.6562 72.625 13.4375 73.1875 13.4375 74.5C13.4375 75.8438 13.5625 76.1562 14.625 77.1875C15.25 77.8125 15.9688 78.4062 16.2188 78.4688C16.5 78.5938 16.1875 79.3125 15.0312 81.0625C13.7812 83 13.4375 83.7812 13.4375 84.8125C13.4375 86.375 14.3125 87.9375 15.625 88.5938C16.125 88.8438 16.5625 89.1562 16.5625 89.2188C16.5625 89.2812 15.875 90.4375 15 91.75C13.75 93.6562 13.4375 94.4062 13.4375 95.4375C13.4375 97.0312 14.3125 98.5312 15.5938 99.0938C16.7188 99.5938 16.7188 99.6562 14.9375 102.25C13.9375 103.75 13.5938 104.562 13.5 105.812C13.375 107.25 13.4688 107.5 14.375 108.531C15.5938 109.938 16.8438 110.312 20.25 110.312H22.8125V115.5C22.8125 118.531 22.9375 120.906 23.1562 121.281C23.9375 122.781 26.4375 122.656 27.1562 121.062C27.375 120.594 27.5 118.344 27.5 115.312V110.312H29.8438H32.1875V129.812V149.344L33 149.969C33.8438 150.625 34 150.625 59.2188 150.625C84.4375 150.625 84.5938 150.625 85.4375 149.969C86.5625 149.094 86.5625 147.469 85.4375 146.594C84.625 145.938 84.4062 145.938 60.75 145.938H36.875V128.125V110.312H61.5625H86.25V122.969C86.25 135.219 86.2812 135.656 86.875 136.25C87.8125 137.188 89.4688 137.094 90.2812 136.062C90.9062 135.25 90.9375 134.906 90.9375 122.781V110.312H97.0312H103.125V128.125V145.938H97.6875C92.8438 145.938 92.1875 146 91.5312 146.531C90.5312 147.344 90.5312 149.219 91.5312 150.031C92.1875 150.562 92.875 150.625 99.2188 150.625C105.781 150.625 106.219 150.594 107 149.969L107.812 149.344V129.812V110.312H110.156H112.5V132.312C112.5 151.906 112.438 154.375 112 154.812C111.562 155.25 107.312 155.312 70 155.312C32.6875 155.312 28.4375 155.25 28 154.812C27.5625 154.406 27.5 152.75 27.5 141.438C27.5 128.844 27.4688 128.5 26.8438 127.688C26 126.625 24.4375 126.562 23.5 127.594C22.8125 128.312 22.8125 128.406 22.8125 141.781V155.219L23.5312 156.594C23.9375 157.344 24.875 158.375 25.5938 158.906L26.9375 159.844H70H113.062L114.406 158.906C115.125 158.375 116.062 157.344 116.469 156.594L117.188 155.219V132.75V110.312H119.781C123.156 110.312 124.406 109.938 125.625 108.531C126.531 107.5 126.625 107.25 126.5 105.812C126.406 104.562 126.062 103.75 125.062 102.25C123.281 99.6562 123.281 99.5938 124.406 99.0938C125.688 98.5312 126.562 97.0312 126.562 95.4375C126.562 94.4062 126.25 93.6562 125 91.75C124.125 90.4375 123.438 89.2812 123.438 89.2188C123.438 89.1562 123.875 88.8438 124.375 88.5938C125.688 87.9375 126.562 86.375 126.562 84.8125C126.562 83.7812 126.219 83 124.969 81.0625C123.875 79.4062 123.5 78.5625 123.75 78.5C124 78.4062 124.656 77.875 125.281 77.3125C126.312 76.375 126.406 76.1562 126.406 74.4688C126.406 72.8438 126.281 72.4688 125.062 70.7188C123.281 68.125 123.281 68.0312 124.344 67.5625C125.594 67 126.562 65.375 126.562 63.8438C126.562 62.8438 126.219 62.0625 125 60.1875C124.156 58.875 123.438 57.7188 123.438 57.6562C123.438 57.5938 123.875 57.2812 124.375 57.0312C125.688 56.375 126.562 54.8125 126.562 53.25C126.562 52.2188 126.219 51.4375 124.969 49.5C123.875 47.8438 123.5 47 123.75 46.9375C124 46.8438 124.656 46.3438 125.25 45.7812C126.156 44.9688 126.344 44.5312 126.5 43.1875C126.625 41.6562 126.562 41.4375 125.031 39.125C124.156 37.7812 123.438 36.5938 123.438 36.5C123.438 36.4062 123.844 36.1562 124.375 35.9375C125.594 35.4375 126.562 33.8125 126.562 32.2812C126.562 31.125 125.938 29.8125 123.938 26.8125C123.406 25.9688 123.406 25.9688 124.375 25.4688C125.656 24.8125 126.562 23.25 126.562 21.6875C126.562 20.6562 126.25 19.9062 125 18C124.125 16.6875 123.438 15.5312 123.438 15.4688C123.438 15.375 125.188 15.3125 127.344 15.3125H131.25L131.312 41.6875C131.406 67.125 131.438 68.0938 132 68.7188C132.781 69.5625 134.469 69.5938 135.312 68.75C135.938 68.125 135.938 67.7188 135.938 41.625V15.1562L137.062 14.25C138.844 12.8438 139.375 11.3125 139.375 7.65625C139.375 3.28125 138.562 1.59375 135.844 0.46875C134.844 0.0625 129.188 0 86.5938 0C60.125 0 38.25 0.09375 37.9688 0.1875C37.7188 0.3125 37.25 0.8125 37 1.3125C36.5938 2.09375 36.5938 2.40625 36.9062 3.15625C37.0938 3.6875 37.5312 4.21875 37.8438 4.375C38.1875 4.5625 56.1875 4.6875 86.1875 4.6875C126.875 4.6875 134.031 4.75 134.344 5.125C134.594 5.40625 134.688 6.46875 134.625 8.03125L134.531 10.4688H70H5.46875L5.375 8.03125C5.3125 6.46875 5.40625 5.40625 5.65625 5.125C5.9375 4.75 8.125 4.6875 18.2812 4.6875C30.2188 4.6875 30.5625 4.65625 31.375 4.03125C31.9688 3.5625 32.1875 3.09375 32.1875 2.34375C32.1875 1.59375 31.9688 1.125 31.375 0.65625C30.5625 0.03125 30.2188 0 17.8438 0C6.1875 0 5.0625 0.0625 3.90625 0.59375ZM119.625 18.3438L121.594 21.25H70H18.4062L20.0312 18.8125C20.9375 17.5 21.875 16.1562 22.125 15.8438C22.5625 15.3438 25.1562 15.3125 70.125 15.375L117.656 15.4688L119.625 18.3438ZM119.625 28.8125L121.562 31.7188L95.7812 31.8125C81.5938 31.8438 58.4062 31.8438 44.2188 31.8125L18.4375 31.7188L20.375 28.8125L22.2812 25.9375H70H117.719L119.625 28.8125ZM119.469 39.2188C120.469 40.6875 121.25 41.9375 121.25 42.0312C121.25 42.125 98.1875 42.1875 70 42.1875C41.8125 42.1875 18.75 42.125 18.75 42.0312C18.75 41.9375 19.5312 40.6875 20.5312 39.2188L22.2812 36.5625H70H117.719L119.469 39.2188ZM119.625 49.9062L121.594 52.8125H70H18.4062L20.0312 50.375C20.9375 49.0625 21.875 47.7188 22.125 47.4062C22.5625 46.9062 25.1562 46.875 70.125 46.9375L117.656 47.0312L119.625 49.9062ZM119.625 60.4688L121.562 63.4375H70H18.4375L20.375 60.4688L22.3438 57.5H70H117.656L119.625 60.4688ZM119.469 70.7812C120.469 72.25 121.25 73.5625 121.25 73.75C121.25 73.9688 104.281 74.0625 70 74.0625C35.7188 74.0625 18.75 73.9688 18.75 73.75C18.75 73.5625 19.5312 72.25 20.5312 70.7812L22.2812 68.125H70H117.719L119.469 70.7812ZM119.688 81.5625L121.594 84.375H70H18.4062L20.3125 81.5625L22.2188 78.75H70H117.781L119.688 81.5625ZM119.625 92.0312L121.562 95H70H18.4375L20.375 92.0312L22.3438 89.0625H70H117.656L119.625 92.0312ZM119.469 102.344C120.469 103.812 121.25 105.125 121.25 105.312C121.25 105.531 104.281 105.625 70 105.625C35.7188 105.625 18.75 105.531 18.75 105.312C18.75 105.125 19.5312 103.812 20.5312 102.344L22.2812 99.6875H70H117.719L119.469 102.344Z" fill="#394A59"/>
</svg>
