<svg width="160" height="172" viewBox="0 0 160 172" fill="none" xmlns="http://www.w3.org/2000/svg">
<path d="M5.16048 0.446915C3.28394 1.1171 1.94356 2.22292 0.938269 3.93192C0.134038 5.23878 0 5.90898 0 7.88605C0 9.93013 0.134038 10.4663 1.00529 11.9072C3.71957 16.2634 9.61726 16.9336 13.2363 13.3146C13.9735 12.5774 14.6772 11.6056 14.7777 11.17C14.9788 10.4328 15.1799 10.3658 16.7883 10.3658H18.5978V88.7782V167.224L19.4356 168.028C19.8712 168.498 20.6419 168.866 21.1111 168.866C21.6137 168.866 22.9876 169.402 24.1604 170.073C27.6789 172.05 30.9629 172.016 34.1463 169.972C36.2909 168.565 37.5978 168.598 40.178 170.039C43.7635 172.05 47.0475 172.016 50.2309 169.972C52.3755 168.565 53.6824 168.598 56.2626 170.039C59.8482 172.05 63.1321 172.016 66.3155 169.972C68.3931 168.632 69.834 168.598 71.9786 169.838C74.1233 171.044 75.5307 171.178 76.4354 170.173C77.0721 169.469 77.0721 167.593 77.1726 89.9176L77.2396 10.3658H80.088H82.9363V89.7165C82.9363 164.912 82.9698 169.134 83.5395 169.603C84.6788 170.609 85.416 170.575 87.7952 169.369C89.1021 168.732 90.3754 168.196 90.677 168.196C90.9451 168.196 92.386 168.799 93.8269 169.536C96.1056 170.709 96.7422 170.877 98.6858 170.877C100.629 170.877 101.266 170.709 103.578 169.536C105.019 168.799 106.46 168.196 106.762 168.196C107.03 168.196 108.471 168.799 109.912 169.536C112.19 170.709 112.827 170.877 114.77 170.877C116.714 170.877 117.351 170.709 119.663 169.536C121.104 168.799 122.545 168.196 122.846 168.196C123.114 168.196 124.555 168.799 125.996 169.536C128.275 170.709 128.911 170.877 130.855 170.877C132.799 170.877 133.435 170.709 135.714 169.536C137.155 168.799 138.696 168.196 139.132 168.196C139.568 168.196 140.204 167.894 140.573 167.526C141.243 166.856 141.243 166.42 141.243 88.6107V10.3658H143.053C144.728 10.3658 144.862 10.4328 145.264 11.371C145.834 12.7449 147.878 14.521 149.754 15.2246C153.44 16.632 157.964 14.588 159.573 10.8014C160.142 9.39397 160.142 6.3111 159.573 4.90369C157.998 1.18411 153.776 -0.792953 149.888 0.379883C148.28 0.84903 145.834 2.92662 145.264 4.33403C144.862 5.27229 144.728 5.33931 143.053 5.33931C141.511 5.33931 141.243 5.23878 141.243 4.73615C141.243 4.40105 140.908 3.79787 140.472 3.39575C139.098 2.12239 137.222 2.55801 136.619 4.33403L136.25 5.33931H133.402C130.754 5.33931 130.52 5.27229 130.52 4.66911C130.52 3.76436 129.247 2.65854 128.174 2.65854C127.102 2.65854 125.829 3.76436 125.829 4.66911C125.829 5.27229 125.594 5.33931 122.947 5.33931H120.098L119.73 4.33403C119.361 3.1947 118.591 2.65854 117.384 2.65854C116.379 2.65854 115.106 3.79787 115.106 4.66911C115.106 5.27229 114.871 5.33931 112.224 5.33931H109.375L109.007 4.33403C108.638 3.1947 107.867 2.65854 106.628 2.65854C105.723 2.65854 104.382 3.93192 104.382 4.76965C104.382 5.27229 103.98 5.33931 101.568 5.33931H98.7528L98.3507 4.33403C97.8816 3.1947 97.1108 2.65854 95.9045 2.65854C94.9997 2.65854 93.6594 3.93192 93.6594 4.76965C93.6594 5.27229 93.2572 5.33931 90.8446 5.33931H88.0297L87.6276 4.33403C87.1585 3.1947 86.3878 2.65854 85.1814 2.65854C84.2767 2.65854 82.9363 3.93192 82.9363 4.76965C82.9363 5.27229 82.5342 5.33931 80.155 5.33931C77.4407 5.33931 77.3402 5.3058 76.6365 4.33403C76.0333 3.56331 75.6312 3.32874 74.7264 3.32874C73.5871 3.32874 72.2132 4.267 72.2132 5.00421C72.2132 5.20528 71.0739 5.33931 69.4319 5.33931C66.7176 5.33931 66.6171 5.3058 65.9134 4.33403C65.3102 3.56331 64.9081 3.32874 64.0033 3.32874C62.864 3.32874 61.4901 4.267 61.4901 5.00421C61.4901 5.20528 60.3508 5.33931 58.7088 5.33931C55.9946 5.33931 55.894 5.3058 55.1903 4.33403C54.5872 3.56331 54.185 3.32874 53.2803 3.32874C52.1409 3.32874 50.7671 4.267 50.7671 5.00421C50.7671 5.20528 49.6277 5.33931 47.9858 5.33931C45.2715 5.33931 45.171 5.3058 44.4673 4.33403C43.8641 3.56331 43.462 3.32874 42.5572 3.32874C41.4179 3.32874 40.044 4.267 40.044 5.00421C40.044 5.20528 38.9047 5.33931 37.2627 5.33931C34.5484 5.33931 34.4479 5.3058 33.7442 4.33403C32.8059 3.06065 31.0634 2.92662 29.9911 4.06595C29.6225 4.46806 29.3209 4.90369 29.3209 5.07123C29.3209 5.20528 28.0811 5.33931 26.5396 5.33931C23.8253 5.33931 23.7248 5.3058 23.0211 4.33403C22.4514 3.56331 22.0158 3.32874 21.1446 3.32874C20.2733 3.32874 19.7707 3.59682 19.1675 4.33403C18.4303 5.17177 18.0617 5.33931 16.8218 5.33931C15.4479 5.33931 15.2804 5.23878 14.3756 3.83138C12.365 0.614456 8.57846 -0.792953 5.16048 0.446915ZM9.58375 5.976C10.1534 6.57916 10.5555 7.31638 10.5555 7.85254C10.5555 9.02538 8.88005 10.7009 7.70721 10.7009C6.53437 10.7009 4.85889 9.02538 4.85889 7.85254C4.85889 6.6797 6.53437 5.00421 7.70721 5.00421C8.24336 5.00421 8.98057 5.40633 9.58375 5.976ZM154.144 5.84195C155.82 7.48393 154.948 10.1982 152.603 10.5668C149.922 11.0024 148.381 7.55095 150.458 5.77493C151.631 4.76965 153.105 4.76965 154.144 5.84195ZM29.3209 14.8896V19.4133L28.4161 19.2123C27.88 19.0782 26.7742 18.5421 25.9364 18.006C25.0987 17.5033 24.2274 17.0677 23.9929 17.0677C23.7583 17.0677 23.6243 15.9954 23.6243 13.7167V10.3658H26.4726H29.3209V14.8896ZM40.044 13.6162V16.9001H37.1957H34.3473V13.6162V10.3658H37.1957H40.044V13.6162ZM50.7335 13.6162V16.9001L48.4884 17.9724C44.7353 19.7484 45.0704 20.05 45.0704 14.8896V10.3658H47.9187H50.7671L50.7335 13.6162ZM61.4231 14.789C61.3226 19.9495 61.4566 19.8155 57.9046 17.9724L55.7935 16.9001V13.6162V10.3658H58.6418H61.5236L61.4231 14.789ZM72.2132 13.6162V16.9001H69.3649H66.5166V13.6162V10.3658H69.3649H72.2132V13.6162ZM93.6594 13.2811V16.2299H90.811H87.9627V13.2811V10.3658H90.811H93.6594V13.2811ZM104.382 13.3146V16.2299L101.97 17.5033C100.629 18.1735 99.3225 18.7431 99.1214 18.7431C98.7863 18.7431 98.6858 17.6709 98.6858 14.5545V10.3658H101.534H104.382V13.3146ZM115.106 14.3869C115.106 18.9107 114.938 19.2458 113.028 18.207C112.425 17.9054 111.352 17.3358 110.682 16.9671L109.409 16.3305V13.3481V10.3658H112.257H115.106V14.3869ZM125.493 13.2811V16.2299H122.813H120.132V13.2811V10.3658H122.813H125.493V13.2811ZM136.217 13.3481V16.3305L134.809 17.1012C130.352 19.4469 130.52 19.5474 130.52 14.3869V10.3658H133.368H136.217V13.3481ZM93.9274 22.3287C95.9715 23.5015 96.4071 23.6021 98.6858 23.6021C100.629 23.6021 101.534 23.401 102.606 22.8313C103.377 22.4292 104.114 22.0941 104.215 22.0941C104.315 22.0941 104.382 53.9283 104.382 92.7994V163.505L103.545 163.84C103.076 164.007 102.137 164.543 101.434 165.013C100.763 165.482 99.8586 165.85 99.4565 165.85H98.6858L98.6188 98.295L98.5182 30.7396L97.714 30.1029C96.7087 29.2652 95.3013 29.2987 94.3966 30.1364L93.6594 30.8401V97.1221V163.404H90.811L87.9627 163.371V92.7659V22.1276L88.6999 21.625C89.9398 20.7537 91.5147 20.9883 93.9274 22.3287ZM124.622 21.4909L125.493 21.8595L125.561 76.9158C125.661 130.498 125.695 131.939 126.298 132.642C127.068 133.514 129.012 133.581 129.917 132.776C130.486 132.274 130.52 130.129 130.52 78.0552V23.8701L132.028 23.6691C132.866 23.535 134.139 23.1329 134.876 22.7643L136.217 22.0941V92.9669C136.217 145.778 136.116 163.84 135.848 163.84C135.613 163.84 134.709 164.309 133.804 164.845C132.933 165.415 131.827 165.85 131.358 165.85H130.52V153.184C130.52 140.886 130.486 140.484 129.85 139.88C128.911 139.043 127.303 139.11 126.398 140.014C125.661 140.718 125.661 140.919 125.561 152.044L125.46 163.371H122.813H120.132V92.7659V22.1276L120.869 21.625C121.74 20.9883 123.449 20.9213 124.622 21.4909ZM39.3068 22.2952L40.044 22.7978V93.4026V164.007H37.1957H34.3473V152.681V141.355L33.5096 140.551C32.4708 139.478 31.1974 139.478 30.1586 140.551L29.3209 141.355V153.954C29.3209 165.013 29.2539 166.521 28.8183 166.521C28.5167 166.521 27.2433 165.984 25.9699 165.281L23.6243 164.074V93.4026C23.6243 54.5649 23.6913 22.7643 23.7918 22.7643C23.9259 22.7643 24.4285 22.9989 24.9647 23.267C25.5008 23.535 26.7072 23.9371 27.6454 24.1382L29.3209 24.5068V78.4908V132.475L30.0581 133.245C31.0299 134.284 32.4708 134.251 33.5096 133.178L34.3473 132.374V77.452V22.5297L35.1181 22.1611C36.2239 21.625 38.4355 21.692 39.3068 22.2952ZM71.476 22.2952L72.2132 22.7978V93.4026V164.007H69.3649H66.5166V97.9599V31.9124L65.8129 31.0077C64.9416 29.9019 63.1656 29.8013 62.1603 30.8066C61.4901 31.4768 61.4901 31.9124 61.4901 98.9987C61.4901 163.304 61.4566 166.521 60.887 166.521C60.5854 166.521 59.7811 166.219 59.1445 165.85C58.5078 165.482 57.469 164.946 56.8993 164.678L55.7935 164.175V93.4696C55.7935 54.5649 55.8605 22.7643 55.961 22.7643C56.0616 22.7643 56.7988 23.0994 57.5695 23.468C58.6083 24.0042 59.5801 24.2052 61.2556 24.2052C63.2326 24.2052 63.8358 24.0377 65.7794 22.9989C68.2591 21.692 70.2361 21.4239 71.476 22.2952ZM113.598 23.6691L115.106 23.8701V94.8435C115.106 162.231 115.072 165.85 114.536 165.85C114.201 165.884 112.927 165.381 111.688 164.778L109.442 163.672V92.8664L109.409 22.0941L110.749 22.7643C111.486 23.1329 112.76 23.535 113.598 23.6691ZM50.7671 93.2015V164.007L48.4214 165.247C47.148 165.951 45.8747 166.521 45.5731 166.521C45.1374 166.521 45.0704 159.115 45.0704 95.4802V24.4398L46.0087 24.2722C48.0863 23.8366 49.2926 23.4345 49.9293 22.9654C50.2979 22.6638 50.633 22.4292 50.7 22.4292C50.7335 22.4292 50.7671 54.2969 50.7671 93.2015Z" fill="#394A59"/>
</svg>
