<svg width="160" height="176" viewBox="0 0 160 176" fill="none" xmlns="http://www.w3.org/2000/svg">
<path d="M2.02154 0.546921C0.31256 1.46977 0.0391226 2.52934 0.0391226 8.37407C0.0391226 16.7823 0.00494316 16.7481 10.1221 16.7481H17.129V87.5V158.252H10.1221C2.19244 158.252 1.37213 158.457 0.517638 160.474C-0.200135 162.217 -0.165955 171.24 0.585997 172.778C1.71393 175.171 -4.95111 175 80.1905 175C148.14 175 157.061 174.932 157.949 174.487C159.727 173.564 160 172.539 160 166.558C160 161.772 159.932 161.021 159.316 160.029C158.94 159.414 158.223 158.765 157.744 158.594C157.266 158.389 153.745 158.252 149.883 158.252H142.91V87.5V16.7481H149.917C160 16.7481 160 16.7481 160 8.33989C160 2.80278 159.692 1.60649 157.983 0.5811C157.095 0.0684052 155.693 6.10352e-05 145.337 6.10352e-05H133.647L132.827 0.854538C131.733 1.91411 131.733 3.21294 132.827 4.27251L133.647 5.127H144.277H154.873V8.37407V11.6211H80.0196H5.16607V8.37407V5.127H64.2627C121.48 5.127 123.394 5.09282 124.146 4.47758C125.239 3.58891 125.239 1.53813 124.146 0.64946C123.394 0.0342255 121.48 6.10352e-05 63.1348 6.10352e-05C10.5665 0.0342255 2.84186 0.102585 2.02154 0.546921ZM137.715 55.0977L137.612 93.4815L98.169 93.584L58.6914 93.6524L57.9053 94.4043C56.6065 95.6006 56.9141 97.4463 58.5205 98.2666C59.2725 98.6768 61.2207 98.7793 68.3985 98.7793H77.2852V108.452V118.159L75.6104 118.945C73.4571 119.937 71.3721 122.056 70.3809 124.243C69.2871 126.636 69.3213 130.396 70.4492 132.788C71.4405 134.805 73.3203 136.753 75.3028 137.813C76.5332 138.462 77.2852 138.599 80.0196 138.599C82.9248 138.599 83.4375 138.496 84.8047 137.676C88.4961 135.488 90.4102 132.31 90.376 128.345C90.3418 124.141 87.9834 120.518 84.292 118.911L82.4121 118.091V108.418V98.7793H110.098H137.783V128.516V158.252H80.0196H22.2559V128.516V98.7793H35.2784H48.3008L49.292 97.7881C50.4541 96.5918 50.5225 95.7715 49.5655 94.541L48.8819 93.6524H35.5518H22.2559V55.2002V16.7481H80.0196H137.783L137.715 55.0977ZM83.0616 124.038C87.1973 126.978 85.0782 133.643 80.0196 133.643C78.2422 133.643 76.6358 132.788 75.4395 131.147C74.3457 129.644 74.4825 126.909 75.7129 125.269C76.2598 124.585 77.1826 123.799 77.7637 123.525C79.2334 122.842 81.7285 123.115 83.0616 124.038ZM154.873 166.626V169.873H80.0196H5.16607V166.626V163.379H80.0196H154.873V166.626Z" fill="#394A59"/>
</svg>
