<svg width="162" height="176" viewBox="0 0 162 176" fill="none" xmlns="http://www.w3.org/2000/svg">
<path fill-rule="evenodd" clip-rule="evenodd" d="M144.567 17.1349V158.702L155.988 158.702C159.11 158.702 161.657 161.249 161.657 164.371V170.23C161.657 173.353 159.11 175.9 155.988 175.9H6.28148C3.15883 175.9 0.612186 173.353 0.612186 170.23V164.371C0.612186 161.249 3.15883 158.702 6.28148 158.702L17.7017 158.702V17.1976H6.28111V43.0753C6.28111 44.5323 5.09245 45.7209 3.63544 45.7209H3.25749C1.80048 45.7209 0.611816 44.5323 0.611816 43.0753V11.5283V5.66929C0.611816 2.54665 3.15846 0 6.28111 0H155.987C159.11 0 161.657 2.54665 161.657 5.66929V11.5283C161.657 14.651 159.11 17.1976 155.987 17.1976L144.567 17.1349ZM23.371 109.691V158.702H138.898V109.796H131.34V151.141H105.115V147.362H127.56V109.796L23.371 109.691ZM6.28111 5.66929H155.987V11.5283H6.28111V5.66929ZM6.28148 164.371H155.988V170.23H6.28148V164.371ZM23.371 104.022V17.198H138.898V104.022H23.371Z" fill="#394A59"/>
</svg>
