<svg width="162" height="176" viewBox="0 0 162 176" fill="none" xmlns="http://www.w3.org/2000/svg">
<path fill-rule="evenodd" clip-rule="evenodd" d="M22.7592 109.796H126.948V147.362H104.503V151.141H130.728V109.796H138.286V158.702H22.7592V109.796ZM12.7053 109.796H17.0899V158.702L5.66967 158.702C2.54702 158.702 0.000373708 161.249 0.000373708 164.371V170.23C0.000373708 173.353 2.54702 175.9 5.66967 175.9H155.376C158.499 175.9 161.045 173.353 161.045 170.23V164.371C161.045 161.249 158.499 158.702 155.376 158.702L143.955 158.702V109.796H148.34C150.498 109.796 152.348 108.679 153.355 106.771C154.361 104.862 154.236 102.704 153.017 100.923L149.894 96.3625C151.371 95.9588 152.6 94.9731 153.355 93.5422C154.361 91.6332 154.236 89.4754 153.017 87.6949L149.894 83.1341C151.371 82.7305 152.6 81.7448 153.355 80.3139C154.361 78.4048 154.236 76.247 153.017 74.4665L149.894 69.9058C151.371 69.5021 152.6 68.5164 153.355 67.0855C154.361 65.1765 154.236 63.0187 153.017 61.2382L149.894 56.6774C151.371 56.2738 152.6 55.2881 153.355 53.8572C154.361 51.9481 154.236 49.7904 153.017 48.0098L149.894 43.4491C151.371 43.0454 152.6 42.0597 153.355 40.6288C154.361 38.7198 154.236 36.562 153.017 34.7815L149.895 30.2215C151.372 29.8175 152.6 28.8318 153.355 27.4012C154.361 25.4922 154.236 23.3344 153.017 21.5539L150.034 17.1976H155.376C158.498 17.1976 161.045 14.651 161.045 11.5283V5.66929C161.045 2.54665 158.498 0 155.376 0H5.66929C2.54665 0 0 2.54665 0 5.66929V11.5283V43.0753C0 44.5323 1.18866 45.721 2.64567 45.721H3.02362C4.48063 45.721 5.66929 44.5323 5.66929 43.0753V17.1976H11.0105L8.02771 21.5539C6.80844 23.3344 6.68372 25.4922 7.6902 27.4012C8.4446 28.8318 9.67332 29.8175 11.1504 30.2215L8.02771 34.7815C6.80844 36.562 6.68372 38.7198 7.6902 40.6288C8.4446 42.0597 9.6737 43.0454 11.1507 43.4491L8.02771 48.0098C6.80844 49.7904 6.68372 51.9481 7.6902 53.8572C8.4446 55.2881 9.6737 56.2738 11.1507 56.6774L8.02771 61.2382C6.80844 63.0187 6.68372 65.1765 7.6902 67.0855C8.4446 68.5164 9.6737 69.5021 11.1507 69.9058L8.02771 74.4665C6.80844 76.247 6.68372 78.4048 7.6902 80.3139C8.4446 81.7448 9.6737 82.7305 11.1507 83.1341L8.02771 87.6949C6.80844 89.4754 6.68372 91.6332 7.6902 93.5422C8.4446 94.9731 9.6737 95.9588 11.1507 96.3625L8.02771 100.923C6.80844 102.704 6.68372 104.862 7.6902 106.771C8.69669 108.679 10.5471 109.796 12.7053 109.796ZM5.66967 164.371H155.376V170.23H5.66967V164.371ZM80.5225 104.126H12.7053L17.8813 96.5673H80.5225H143.164L148.34 104.126H80.5225ZM80.5225 90.898H12.7053L17.8813 83.339H80.5225H143.164L148.34 90.898H80.5225ZM80.5225 77.6697H12.7053L17.8813 70.1106H80.5225H143.164L148.34 77.6697H80.5225ZM80.5225 64.4413H12.7053L17.8813 56.8823H80.5225H143.164L148.34 64.4413H80.5225ZM80.5225 51.213H12.7053L17.8813 43.6539H80.5225H143.164L148.34 51.213H80.5225ZM80.5225 37.9846H12.7053L17.8813 30.4256H80.5225H143.164L148.34 37.9846H80.5225ZM80.5225 24.757H12.7053L17.8813 17.198H80.5225H143.164L148.34 24.757H80.5225ZM155.376 11.5283H5.66929V5.66929H155.376V11.5283Z" fill="#394A59"/>
</svg>
