<svg width="162" height="176" viewBox="0 0 162 176" fill="none" xmlns="http://www.w3.org/2000/svg">
<path fill-rule="evenodd" clip-rule="evenodd" d="M22.321 126.162H143.516C141.639 138.17 138.717 156.32 143.955 158.704C103.557 158.704 63.158 158.704 22.7594 158.704C17.5216 156.32 20.444 138.17 22.3215 126.162H22.321ZM141.816 120.492H20.6207C18.5751 114.39 20.7936 100.555 22.3205 90.7855H143.516C141.988 100.555 139.77 114.39 141.816 120.492ZM17.0907 123.328C15.3134 135.067 11.4225 156.116 17.0898 158.702L5.66966 158.703C2.54688 158.703 0.000472432 161.25 0.000472432 164.372V170.231C0.000472432 173.354 2.54735 175.9 5.66966 175.9H155.376C158.499 175.9 161.045 173.353 161.045 170.231V164.372C161.045 161.249 158.499 158.703 155.376 158.703L149.623 158.704C143.953 156.124 147.845 135.068 149.623 123.328C143.953 120.748 147.845 99.6922 149.623 87.9514C143.953 85.3714 147.845 64.3161 149.623 52.5752C143.953 49.9952 147.845 28.9399 149.623 17.199H155.376C158.499 17.199 161.045 14.6521 161.045 11.5298V5.67074C161.045 2.54796 158.498 0.0015564 155.376 0.0015564H5.66918C2.54641 0.0015564 0 2.54844 0 5.67074V11.5298V43.0769C0 44.5339 1.18864 45.7226 2.64562 45.7226H3.02356C4.48054 45.7226 5.66918 44.5339 5.66918 43.0769V17.1995L17.0898 17.2042C15.3115 28.946 11.4215 49.9962 17.0907 52.5757C15.3129 64.3165 11.421 85.3724 17.0907 87.9518C15.3129 99.6927 11.421 120.749 17.0907 123.328V123.328ZM141.816 85.1163H20.6207C18.5751 79.0139 20.7936 65.1787 22.3205 55.4093H143.516C141.988 65.1792 139.77 79.0139 141.816 85.1163ZM20.6207 49.7401C18.3672 43.0188 21.2868 26.9179 22.7589 17.1986H143.954C142.483 26.9174 139.563 43.0188 141.816 49.7401H20.6207ZM155.375 11.5294H5.66871V5.67027H155.375V11.5294ZM5.66918 164.372H155.376V170.232H5.66918V164.372Z" fill="#394A59"/>
</svg>
