<svg width="162" height="177" viewBox="0 0 162 177" fill="none" xmlns="http://www.w3.org/2000/svg">
<path fill-rule="evenodd" clip-rule="evenodd" d="M23.3238 33.9699C24.8144 28.7985 27.2672 23.8285 30.217 19.3325H136.146V38.927H22.2301C22.4386 37.2723 22.9083 35.4105 23.3238 33.9699ZM22.0845 41.1943H27.5257C24.8001 45.5589 22.5514 50.3105 21.135 55.242C21.0893 55.4019 21.0422 55.5675 20.9965 55.7345V41.1929H22.0859L22.0845 41.1943ZM23.3238 55.8316C24.8144 50.6603 27.2672 45.6917 30.217 41.1943H136.146V60.7888H22.2301C22.4386 59.134 22.9083 57.2722 23.3238 55.8316ZM23.3238 77.6934C24.8144 72.5221 27.2672 67.5535 30.217 63.0561H136.146V82.6506H22.2301C22.4386 80.9958 22.9083 79.134 23.3238 77.6934ZM22.0845 84.9178H27.5257C24.8015 89.281 22.5514 94.034 21.135 98.9655C21.0893 99.1254 21.0422 99.291 20.9965 99.4581V84.9164H22.0859L22.0845 84.9178ZM22.2301 104.512C22.4386 102.858 22.9083 100.994 23.3238 99.5552C24.8144 94.3838 27.2672 89.4152 30.217 84.9178H136.146V104.512H22.2301ZM141.291 60.7874C141.442 59.6266 141.719 58.3844 141.973 57.3579C142.822 53.9227 144.133 50.5518 145.718 47.3693V60.7888H141.291V60.7874ZM141.291 104.512C141.442 103.352 141.719 102.109 141.973 101.083C142.822 97.6477 144.133 94.2768 145.718 91.0943V104.514H141.291V104.512ZM149.624 171.23V18.1975H155.375C158.498 18.1975 161.045 15.6503 161.045 12.5279V6.66835C161.045 3.54585 158.498 0.998741 155.375 0.998741H5.66961C2.54711 0.998741 0 3.54585 0 6.66835V12.5279V44.0741C0 45.5304 1.18932 46.7197 2.64563 46.7197H3.02398C4.48029 46.7197 5.66961 45.5304 5.66961 44.0741V18.196H17.0902V171.228H12.5271V176.898H154.189V171.228H149.626L149.624 171.23ZM30.2184 106.781H136.148V126.376H22.2316C22.44 124.721 22.9097 122.859 23.3252 121.418C24.8158 116.247 27.2687 111.278 30.2184 106.781ZM30.2184 128.643H136.148V148.237H22.2316C22.44 146.583 22.9097 144.721 23.3252 143.28C24.8158 138.109 27.2687 133.14 30.2184 128.643ZM30.2184 150.505H136.148V171.233H22.1316C22.2173 169.349 22.8126 166.922 23.3252 165.142C24.8158 159.971 27.2687 155.002 30.2184 150.505ZM20.9951 150.505H22.0845H27.5257C24.8015 154.869 22.5514 159.621 21.135 164.552C21.0893 164.712 21.0422 164.878 20.9965 165.045V150.503L20.9951 150.505ZM140.051 84.9178H141.139H145.719L145.267 87.1037L144.724 88.0989C142.774 91.6768 141.135 95.5232 140.053 99.4695V84.9178H140.051ZM140.051 41.1929H141.139H145.719L145.267 43.3788L144.724 44.3739C142.774 47.9519 141.135 51.7982 140.053 55.7445V41.1929H140.051ZM140.051 165.056V150.505H141.139H145.719L145.267 152.69L144.724 153.686C142.774 157.264 141.135 161.11 140.053 165.056H140.051ZM141.973 166.67C142.822 163.234 144.133 159.863 145.718 156.681V171.23H141.186C141.253 169.796 141.635 168.042 141.973 166.67ZM155.374 12.5279H5.66818V6.66835H155.374V12.5279ZM141.973 122.946C141.633 124.318 141.252 126.073 141.186 127.506H145.718V112.957C144.133 116.14 142.822 119.512 141.973 122.946ZM140.051 121.333C141.133 117.386 142.773 113.54 144.723 109.962L145.265 108.967L145.718 106.781H141.138H140.05V121.333H140.051ZM140.051 143.194C141.133 139.248 142.773 135.402 144.723 131.824L145.265 130.829L145.718 128.643H141.138H140.05V143.194H140.051ZM141.973 144.808C141.633 146.18 141.252 147.935 141.186 149.368H145.718V134.819C144.133 138.002 142.822 141.374 141.973 144.808ZM141.973 79.2211C141.633 80.5932 141.252 82.3479 141.186 83.7813H145.718V69.2325C144.133 72.415 142.822 75.7873 141.973 79.2211ZM140.051 77.6077C141.133 73.6614 142.773 69.815 144.723 66.2371L145.265 65.242L145.718 63.0561H141.138H140.05V77.6077H140.051ZM141.973 35.4961C141.633 36.8682 141.252 38.6229 141.186 40.0564H145.718V25.5076C144.133 28.69 142.822 32.0624 141.973 35.4961ZM140.051 33.8828C141.133 29.9365 142.773 26.0901 144.723 22.5121L145.265 21.517L145.718 19.3311H141.138H140.05V33.8828H140.051ZM27.5242 19.3311H22.0831H20.9937V33.8728C21.0408 33.7043 21.0865 33.5401 21.1322 33.3802C22.5485 28.4487 24.7987 23.6957 27.5228 19.3325L27.5242 19.3311ZM27.5242 63.0561H22.0831H20.9937V77.5977C21.0408 77.4293 21.0865 77.2651 21.1322 77.1052C22.5485 72.1737 24.7987 67.4207 27.5228 63.0575L27.5242 63.0561ZM27.5242 128.643H22.0831H20.9937V143.184C21.0408 143.016 21.0865 142.852 21.1322 142.692C22.5485 137.76 24.7987 133.007 27.5228 128.644L27.5242 128.643ZM27.5242 106.781H22.0831H20.9937V121.323C21.0408 121.154 21.0865 120.99 21.1322 120.83C22.5485 115.899 24.7987 111.146 27.5228 106.782L27.5242 106.781Z" fill="#394A59"/>
</svg>
