<svg width="290" height="157" viewBox="0 0 290 157" fill="none" xmlns="http://www.w3.org/2000/svg">
<path d="M44.348 83.7603L47.4314 84.9845M180.232 140.977C168.848 142.196 164.312 134.616 164.312 134.616M180.232 140.977L151.273 151.369C140.003 153.385 134.945 146.143 134.945 146.143M180.232 140.977L34.5209 82.7648L7.13745 105.822L68.012 124.74M164.312 134.616C164.312 134.616 153.431 135.588 149.252 128.6M164.312 134.616L134.945 146.143M149.252 128.6C149.252 128.6 136.69 129.784 132.062 121.733M149.252 128.6L119.5 141.2M132.062 121.733C132.062 121.733 118.768 121.108 115.423 115.085M132.062 121.733L101.869 135.559M115.423 115.085C115.423 115.085 101.052 114.621 99.0423 108.541L68.0041 124.721C70.4362 130.645 84.8041 130.097 84.8041 130.097M115.423 115.085L84.8041 130.097M84.8041 130.097C88.5651 135.87 101.869 135.559 101.869 135.559M101.869 135.559C107.052 143.264 119.5 141.2 119.5 141.2M119.5 141.2C124.159 147.877 134.945 146.143 134.945 146.143" stroke="#394A59" stroke-width="1.50009" stroke-miterlimit="22.9256"/>
<path d="M57.8688 85.7661C41.0215 86.9665 39.7422 78.3816 39.7422 78.3816L77.6115 46.6514M57.8688 85.7661C57.8688 85.7661 60.2662 93.4956 74.0304 92.3508M57.8688 85.7661L96.3467 56.1059M74.0304 92.3508C74.0304 92.3508 77.037 100.016 89.1425 98.5076M74.0304 92.3508L113.051 64.5357M89.1425 98.5076C89.1425 98.5076 93.5506 106.742 104.382 104.716M89.1425 98.5076L128.671 72.4183M104.382 104.716C104.382 104.716 109.101 112.332 119.356 110.817M104.382 104.716L144.421 80.367M119.356 110.817C119.356 110.817 125.551 120.047 136.768 117.911M119.356 110.817L159.898 88.1774M136.768 117.911C136.768 117.911 145.008 127 154.027 124.942M136.768 117.911L177.896 97.26M154.027 124.942C154.027 124.942 163.33 134.49 172.026 132.281M154.027 124.942L195.734 106.262M172.026 132.281C172.026 132.281 178.647 140.935 188.448 138.016L229.001 123.051M172.026 132.281L213.639 115.298M229.001 123.051L77.6115 46.6514M229.001 123.051C220.993 125.424 213.639 115.298 213.639 115.298M77.6115 46.6514C77.6115 46.6514 78.2386 55.9362 96.3467 56.1059M96.3467 56.1059C96.3467 56.1059 98.2425 64.5728 113.051 64.5357M113.051 64.5357C113.051 64.5357 115.604 72.9867 128.671 72.4183M128.671 72.4183C128.671 72.4183 132.672 81.5988 144.421 80.367M144.421 80.367C144.421 80.367 148.809 88.9129 159.898 88.1774M159.898 88.1774C159.898 88.1774 165.724 98.576 177.896 97.26M177.896 97.26C177.896 97.26 185.918 107.684 195.734 106.262M195.734 106.262C195.734 106.262 204.156 116.909 213.639 115.298" stroke="#384652" stroke-width="1.50009" stroke-miterlimit="22.9256"/>
<path d="M192.007 98.0235L82.0791 42.6855L127.401 5.61328L282.84 104.465M192.007 98.0235C195.072 104.619 206.943 105.389 206.943 105.389M192.007 98.0235L240.097 77.2822C242.516 84.1413 254.378 86.3644 254.378 86.3644M282.84 104.465L237.01 120.678C225.727 120.716 221.892 112.99 221.892 112.99M282.84 104.465C271.606 103.422 268.529 95.3638 268.529 95.3638M221.892 112.99C221.892 112.99 210.43 112.711 206.943 105.389M221.892 112.99L268.529 95.3638M206.943 105.389L254.378 86.3644M254.378 86.3644C257.146 93.987 268.529 95.3638 268.529 95.3638" stroke="#384652" stroke-width="1.50009" stroke-miterlimit="22.9256"/>
<path fill-rule="evenodd" clip-rule="evenodd" d="M2.5895 108.745L150.626 155.524C151.131 155.684 151.573 155.676 152.071 155.498L287.88 107.082C288.729 106.78 289.271 106.096 289.371 105.2C289.472 104.304 289.095 103.517 288.335 103.033L128.468 1.36471C127.615 0.822353 126.576 0.889252 125.799 1.53631L1.82112 104.841C1.15592 105.395 0.880399 106.172 1.04783 107.021C1.21489 107.87 1.76405 108.484 2.5895 108.745ZM68.012 124.74L7.13741 105.822L34.5208 82.7648L99.0423 108.542L115.423 115.085L132.062 121.733L149.252 128.6L164.312 134.617L180.232 140.977L151.273 151.369C140.003 153.385 134.945 146.143 134.945 146.143C134.945 146.143 124.159 147.877 119.5 141.2C119.5 141.2 107.052 143.264 101.869 135.559C101.869 135.559 88.5651 135.87 84.804 130.097C84.804 130.097 70.4672 130.643 68.012 124.74ZM89.1426 98.5076C77.0371 100.016 74.0305 92.3508 74.0305 92.3508C60.2662 93.4956 57.8689 85.7661 57.8689 85.7661C53.3701 86.0866 49.9814 85.7094 47.4306 84.9841C46.2257 84.6417 45.2078 84.2214 44.348 83.7603C40.2132 81.5428 39.7423 78.3817 39.7423 78.3817L77.6116 46.6514L96.3467 56.1063L113.051 64.5361L128.671 72.4187L144.422 80.3674L159.899 88.1778L177.896 97.26L195.735 106.263L213.64 115.299L229.001 123.051L188.449 138.016C178.647 140.935 172.027 132.281 172.027 132.281C163.331 134.49 154.027 124.942 154.027 124.942C145.008 127 136.768 117.911 136.768 117.911C125.551 120.047 119.356 110.817 119.356 110.817C109.101 112.332 104.382 104.716 104.382 104.716C93.5506 106.743 89.1426 98.5076 89.1426 98.5076ZM192.007 98.0235L82.079 42.6855L127.401 5.61329L240.096 77.2822L254.377 86.3644L268.528 95.3638L282.84 104.465L237.01 120.678C225.727 120.716 221.892 112.99 221.892 112.99C221.892 112.99 210.43 112.711 206.943 105.389C206.943 105.389 195.295 104.347 192.007 98.0235Z" fill="#384652" stroke="#373435" stroke-width="0.755906" stroke-miterlimit="22.9256"/>
<path fill-rule="evenodd" clip-rule="evenodd" d="M66.9945 138.253C71.8477 136.707 99.0936 120.845 99.0936 120.845C99.0071 120.889 98.9103 120.898 98.8026 120.869C96.793 120.32 98.3324 108.912 98.3324 108.912L68.004 124.721C68.004 124.721 62.1412 139.799 66.9945 138.253Z" fill="#607181"/>
<path fill-rule="evenodd" clip-rule="evenodd" d="M98.3324 108.912C98.3324 108.912 96.793 120.32 98.8025 120.868C98.9103 120.898 99.007 120.889 99.0936 120.845C100.628 120.075 99.0422 108.542 99.0422 108.542C98.9541 108.6 98.3324 108.912 98.3324 108.912Z" fill="#384652" stroke="#373435" stroke-width="0.288" stroke-miterlimit="22.9256"/>
<path fill-rule="evenodd" clip-rule="evenodd" d="M99.0422 108.542C99.0422 108.542 100.628 120.075 99.0936 120.845C99.0936 120.845 71.8477 136.707 66.9945 138.253C62.1412 139.799 68.004 124.721 68.004 124.721L98.3324 108.912C98.3324 108.912 98.9542 108.6 99.0422 108.542Z" stroke="#373435" stroke-width="0.288" stroke-miterlimit="22.9256"/>
<path fill-rule="evenodd" clip-rule="evenodd" d="M186.755 112.408C194.238 110.45 236.245 90.3629 236.245 90.3629C236.111 90.4181 235.962 90.4302 235.796 90.3928C232.698 89.6988 235.071 75.2512 235.071 75.2512L188.311 95.2718C188.311 95.2718 179.272 114.366 186.755 112.408Z" fill="#607181"/>
<path fill-rule="evenodd" clip-rule="evenodd" d="M235.071 75.2511C235.071 75.2511 232.698 89.6988 235.796 90.3927C235.962 90.4301 236.111 90.418 236.245 90.3628C238.61 89.3881 236.165 74.7825 236.165 74.7825C236.03 74.8565 235.071 75.2511 235.071 75.2511Z" fill="#384652" stroke="#373435" stroke-width="0.288" stroke-miterlimit="22.9256"/>
<path fill-rule="evenodd" clip-rule="evenodd" d="M236.165 74.7825C236.165 74.7825 238.61 89.3881 236.245 90.3628C236.245 90.3628 194.238 110.45 186.755 112.408C179.272 114.366 188.311 95.2717 188.311 95.2717L235.071 75.2511C235.071 75.2511 236.03 74.8565 236.165 74.7825Z" stroke="#373435" stroke-width="0.288" stroke-miterlimit="22.9256"/>
<path fill-rule="evenodd" clip-rule="evenodd" d="M65.2716 137.462C70.1248 135.916 97.3707 120.054 97.3707 120.054C97.2842 120.098 97.1874 120.107 97.0797 120.078C95.0701 119.53 96.6095 108.121 96.6095 108.121L66.2811 123.931C66.2811 123.931 60.4183 139.009 65.2716 137.462Z" fill="#607181"/>
<path fill-rule="evenodd" clip-rule="evenodd" d="M96.6095 108.121C96.6095 108.121 95.0701 119.53 97.0796 120.078C97.1874 120.107 97.2841 120.098 97.3707 120.054C98.9048 119.285 97.3193 107.751 97.3193 107.751C97.2312 107.809 96.6095 108.121 96.6095 108.121Z" fill="#384652" stroke="#373435" stroke-width="0.288" stroke-miterlimit="22.9256"/>
<path fill-rule="evenodd" clip-rule="evenodd" d="M97.3193 107.751C97.3193 107.751 98.9048 119.285 97.3707 120.054C97.3707 120.054 70.1248 135.916 65.2716 137.463C60.4183 139.009 66.2811 123.931 66.2811 123.931L96.6095 108.121C96.6095 108.121 97.2312 107.809 97.3193 107.751Z" stroke="#373435" stroke-width="0.288" stroke-miterlimit="22.9256"/>
<path fill-rule="evenodd" clip-rule="evenodd" d="M183.833 110.549C191.316 108.591 233.323 88.5045 233.323 88.5045C233.19 88.5597 233.04 88.5714 232.875 88.5344C229.776 87.8404 232.15 73.3928 232.15 73.3928L185.39 93.4134C185.39 93.4134 176.351 112.507 183.833 110.549Z" fill="#607181"/>
<path fill-rule="evenodd" clip-rule="evenodd" d="M232.15 73.3927C232.15 73.3927 229.776 87.8404 232.875 88.5343C233.041 88.5713 233.19 88.5596 233.323 88.5044C235.689 87.5297 233.244 72.9241 233.244 72.9241C233.108 72.9982 232.15 73.3927 232.15 73.3927Z" fill="#384652" stroke="#373435" stroke-width="0.288" stroke-miterlimit="22.9256"/>
<path fill-rule="evenodd" clip-rule="evenodd" d="M233.244 72.9241C233.244 72.9241 235.688 87.5297 233.323 88.5044C233.323 88.5044 191.316 108.591 183.833 110.549C176.351 112.507 185.39 93.4133 185.39 93.4133L232.15 73.3927C232.15 73.3927 233.108 72.9982 233.244 72.9241Z" stroke="#373435" stroke-width="0.288" stroke-miterlimit="22.9256"/>
<path fill-rule="evenodd" clip-rule="evenodd" d="M63.5533 136.709C68.4066 135.163 95.6524 119.301 95.6524 119.301C95.5659 119.344 95.4691 119.354 95.3614 119.324C93.3518 118.776 94.8913 107.367 94.8913 107.367L64.5628 123.177C64.5628 123.177 58.7 138.255 63.5533 136.709Z" fill="#607181"/>
<path fill-rule="evenodd" clip-rule="evenodd" d="M94.8912 107.367C94.8912 107.367 93.3518 118.776 95.3614 119.324C95.4691 119.354 95.5659 119.344 95.6524 119.301C97.1865 118.531 95.601 106.997 95.601 106.997C95.5129 107.056 94.8912 107.367 94.8912 107.367Z" fill="#384652" stroke="#373435" stroke-width="0.288" stroke-miterlimit="22.9256"/>
<path fill-rule="evenodd" clip-rule="evenodd" d="M95.601 106.997C95.601 106.997 97.1866 118.531 95.6524 119.301C95.6524 119.301 68.4066 135.163 63.5533 136.709C58.7 138.255 64.5628 123.177 64.5628 123.177L94.8913 107.367C94.8913 107.367 95.513 107.056 95.601 106.997Z" stroke="#373435" stroke-width="0.288" stroke-miterlimit="22.9256"/>
<path fill-rule="evenodd" clip-rule="evenodd" d="M181.528 109.084C189.011 107.126 231.018 87.0392 231.018 87.0392C230.884 87.0944 230.735 87.1061 230.569 87.0691C227.471 86.3748 229.844 71.9275 229.844 71.9275L183.084 91.9481C183.084 91.9481 174.045 111.042 181.528 109.084Z" fill="#607181"/>
<path fill-rule="evenodd" clip-rule="evenodd" d="M229.844 71.9274C229.844 71.9274 227.471 86.3747 230.569 87.069C230.735 87.106 230.884 87.0942 231.018 87.0391C233.383 86.0643 230.938 71.4587 230.938 71.4587C230.803 71.5328 229.844 71.9274 229.844 71.9274Z" fill="#384652" stroke="#373435" stroke-width="0.288" stroke-miterlimit="22.9256"/>
<path fill-rule="evenodd" clip-rule="evenodd" d="M230.938 71.4587C230.938 71.4587 233.383 86.0643 231.018 87.0391C231.018 87.0391 189.011 107.126 181.528 109.084C174.045 111.042 183.084 91.948 183.084 91.948L229.844 71.9274C229.844 71.9274 230.803 71.5328 230.938 71.4587Z" stroke="#373435" stroke-width="0.288" stroke-miterlimit="22.9256"/>
<path fill-rule="evenodd" clip-rule="evenodd" d="M61.7259 136.205C66.5792 134.659 93.8251 118.797 93.8251 118.797C93.7385 118.841 93.6417 118.85 93.534 118.821C91.5244 118.273 93.0638 106.864 93.0638 106.864L62.7354 122.673C62.7354 122.673 56.8726 137.752 61.7259 136.205Z" fill="#607181"/>
<path fill-rule="evenodd" clip-rule="evenodd" d="M93.0638 106.864C93.0638 106.864 91.5244 118.273 93.534 118.821C93.6417 118.85 93.7385 118.841 93.825 118.797C95.3591 118.027 93.7736 106.494 93.7736 106.494C93.6856 106.552 93.0638 106.864 93.0638 106.864Z" fill="#384652" stroke="#373435" stroke-width="0.288" stroke-miterlimit="22.9256"/>
<path fill-rule="evenodd" clip-rule="evenodd" d="M93.7736 106.494C93.7736 106.494 95.3592 118.027 93.8251 118.797C93.8251 118.797 66.5792 134.659 61.7259 136.205C56.8726 137.752 62.7354 122.674 62.7354 122.674L93.0638 106.864C93.0638 106.864 93.6856 106.552 93.7736 106.494Z" stroke="#373435" stroke-width="0.288" stroke-miterlimit="22.9256"/>
<path fill-rule="evenodd" clip-rule="evenodd" d="M179.146 107.569C186.629 105.61 228.636 85.5238 228.636 85.5238C228.502 85.579 228.353 85.5911 228.187 85.5537C225.089 84.8598 227.462 70.4121 227.462 70.4121L180.702 90.4327C180.702 90.4327 171.663 109.527 179.146 107.569Z" fill="#607181"/>
<path fill-rule="evenodd" clip-rule="evenodd" d="M227.462 70.4121C227.462 70.4121 225.089 84.8598 228.187 85.5537C228.353 85.5911 228.503 85.579 228.636 85.5238C231.001 84.5491 228.557 69.9435 228.557 69.9435C228.421 70.0176 227.462 70.4121 227.462 70.4121Z" fill="#384652" stroke="#373435" stroke-width="0.288" stroke-miterlimit="22.9256"/>
<path fill-rule="evenodd" clip-rule="evenodd" d="M228.557 69.9435C228.557 69.9435 231.001 84.5491 228.636 85.5238C228.636 85.5238 186.629 105.61 179.146 107.569C171.663 109.527 180.702 90.4327 180.702 90.4327L227.462 70.4121C227.462 70.4121 228.421 70.0176 228.557 69.9435Z" stroke="#373435" stroke-width="0.288" stroke-miterlimit="22.9256"/>
<path fill-rule="evenodd" clip-rule="evenodd" d="M177.311 106.348C184.794 104.39 226.801 84.3035 226.801 84.3035C226.668 84.3587 226.518 84.3707 226.352 84.3333C223.254 83.6394 225.627 69.1918 225.627 69.1918L178.867 89.2123C178.867 89.2123 169.828 108.307 177.311 106.348Z" fill="#607181"/>
<path fill-rule="evenodd" clip-rule="evenodd" d="M225.627 69.1918C225.627 69.1918 223.254 83.6394 226.352 84.3333C226.518 84.3707 226.668 84.3587 226.801 84.3035C229.166 83.3288 226.722 68.7231 226.722 68.7231C226.586 68.7972 225.627 69.1918 225.627 69.1918Z" fill="#384652" stroke="#373435" stroke-width="0.288" stroke-miterlimit="22.9256"/>
<path fill-rule="evenodd" clip-rule="evenodd" d="M226.722 68.7231C226.722 68.7231 229.166 83.3288 226.801 84.3035C226.801 84.3035 184.794 104.39 177.311 106.348C169.828 108.307 178.867 89.2123 178.867 89.2123L225.627 69.1918C225.627 69.1918 226.586 68.7972 226.722 68.7231Z" stroke="#373435" stroke-width="0.288" stroke-miterlimit="22.9256"/>
<path fill-rule="evenodd" clip-rule="evenodd" d="M175.251 105.394C182.734 103.436 224.741 83.3492 224.741 83.3492C224.608 83.4043 224.459 83.4164 224.292 83.379C221.194 82.6851 223.567 68.2374 223.567 68.2374L176.808 88.258C176.808 88.258 167.769 107.352 175.251 105.394Z" fill="#607181"/>
<path fill-rule="evenodd" clip-rule="evenodd" d="M223.568 68.2374C223.568 68.2374 221.194 82.6851 224.292 83.379C224.459 83.4164 224.608 83.4043 224.741 83.3492C227.107 82.3744 224.662 67.7688 224.662 67.7688C224.526 67.8429 223.568 68.2374 223.568 68.2374Z" fill="#384652" stroke="#373435" stroke-width="0.288" stroke-miterlimit="22.9256"/>
<path fill-rule="evenodd" clip-rule="evenodd" d="M224.662 67.7688C224.662 67.7688 227.107 82.3744 224.741 83.3492C224.741 83.3492 182.734 103.436 175.251 105.394C167.769 107.352 176.808 88.258 176.808 88.258L223.567 68.2374C223.567 68.2374 224.526 67.8429 224.662 67.7688Z" stroke="#373435" stroke-width="0.288" stroke-miterlimit="22.9256"/>
</svg>
