<svg width="60" height="66" viewBox="0 0 60 66" fill="none" xmlns="http://www.w3.org/2000/svg">
<path fill-rule="evenodd" clip-rule="evenodd" d="M25.0002 0H10.9628L0 19.5271H34.4891V0.40744C31.9168 0.134797 28.754 0 25.0002 0Z" fill="#3798F1"/>
<path fill-rule="evenodd" clip-rule="evenodd" d="M37.782 0.89624V19.5273H58.1771C57.872 18.5693 57.5278 17.6372 57.1454 16.7315C55.2531 12.2111 52.3985 8.51006 48.5644 5.59747C45.625 3.35223 42.0775 1.79013 37.922 0.925224C37.8755 0.915565 37.829 0.90546 37.782 0.89624Z" fill="#3798F1"/>
<path fill-rule="evenodd" clip-rule="evenodd" d="M34.4891 22.8198H10.9628L0 42.347L34.4891 42.3474V22.8198Z" fill="#145DA0"/>
<path fill-rule="evenodd" clip-rule="evenodd" d="M37.782 22.8198V42.3474H58.9068C59.676 38.9738 60 35.5195 60 32.2346C60 28.8834 59.6848 25.7443 59.0525 22.8198H37.782Z" fill="#145DA0"/>
<path fill-rule="evenodd" clip-rule="evenodd" d="M34.4891 45.6399H10.9628L0 65.167H26.1825C29.1869 65.167 31.9537 64.9962 34.4891 64.6511V45.6399Z" fill="#06447D"/>
<path fill-rule="evenodd" clip-rule="evenodd" d="M37.782 45.6399V64.0756C37.8061 64.0708 37.8312 64.065 37.8549 64.0598C41.2333 63.3169 44.1217 62.2242 46.5031 60.7828C48.902 59.3572 51.1038 57.389 53.1251 54.8821C55.3348 52.1416 56.9127 48.9709 57.9993 45.6399H37.782Z" fill="#06447D"/>
</svg>
