<svg width="190" height="177" viewBox="0 0 190 177" fill="none" xmlns="http://www.w3.org/2000/svg">
<path fill-rule="evenodd" clip-rule="evenodd" d="M84.9171 18.1377H105.085C105.648 22.1024 106.389 26.1086 107.167 29.9929C109.226 40.2735 111.929 50.6396 115.607 60.4624C120.449 73.3962 128.957 90.5388 142.947 95.3973C147.086 96.8345 151.251 97.0405 155.339 96.3181C155.007 97.1288 154.681 97.9404 154.359 98.7492C152.184 104.221 150.204 110.753 148.632 116.429C146.554 123.931 143.084 138.602 149.692 144.727C151.73 146.617 154.288 147.331 156.936 147.353C157.987 150.764 159.675 153.696 162.284 155.616C163.777 156.715 165.442 157.393 167.212 157.715C167.381 158.389 167.579 159.057 167.808 159.701L162.783 159.641H27.22L22.1995 159.692C22.4276 159.05 22.6237 158.386 22.7919 157.715C24.5616 157.393 26.2269 156.715 27.7193 155.616C30.3291 153.696 32.0166 150.764 33.0682 147.353C35.7162 147.332 38.2735 146.617 40.312 144.727C46.9199 138.601 43.4499 123.013 41.3712 115.511C39.7985 109.835 37.8185 104.221 35.6434 98.7492C35.3222 97.9409 34.9957 97.1288 34.6636 96.3181C38.752 97.0405 42.917 96.8349 47.0555 95.3973C61.0461 90.5388 69.5541 73.3962 74.3961 60.4624C78.0735 50.6396 80.7772 40.2735 82.8361 29.9929C83.6137 26.1081 84.3545 22.1024 84.9176 18.1377H84.9171ZM79.6264 17.7593C79.0845 21.5057 78.382 25.2875 77.6474 28.954C75.6447 38.9554 73.018 49.0517 69.4403 58.6076C65.2583 69.7792 57.4745 86.1783 45.3188 90.399C42.4295 91.4025 39.5372 91.6292 36.6842 91.2744C45.642 85.7375 51.2545 74.2635 54.6801 64.9226C57.6172 56.9149 59.7205 48.447 61.2748 40.0637C61.9966 36.1676 62.6661 32.1174 63.0719 28.1703C63.2212 26.7208 62.1606 25.4169 60.7107 25.2681C59.2613 25.1188 57.9573 26.1794 57.8085 27.6293C57.4169 31.4338 56.7682 35.3441 56.0719 39.0995C54.5724 47.1894 52.5466 55.3738 49.7129 63.1009C46.4517 71.9921 40.5015 84.5243 31.0576 88.2008C30.1108 88.5693 29.1598 88.8367 28.2064 89.0115C28.0708 89.0238 27.9367 89.0469 27.8049 89.08C26.7849 89.2397 25.763 89.2954 24.7411 89.2585C24.657 89.2505 24.5725 89.2468 24.4874 89.2472C24.007 89.2231 23.527 89.1782 23.0475 89.1144C28.1015 82.8802 30.7207 74.0623 32.1819 66.7292C33.6554 59.3333 34.3348 51.6487 34.5431 44.1134C34.6405 40.6103 34.6688 36.983 34.4817 33.4795C34.4043 32.0244 33.1542 30.9004 31.6991 30.9779C30.244 31.0554 29.1201 32.3055 29.1976 33.7606C29.8599 46.185 28.8026 78.5958 16.004 88.6803L15.3482 89.1697C14.4416 89.8103 13.4788 90.3419 12.4565 90.751V17.7598H79.6254L79.6264 17.7593ZM30.7259 100.704C32.8301 105.998 34.7505 111.432 36.2718 116.923C37.6324 121.835 41.117 136.765 36.7145 140.847C36.0129 141.497 35.1304 141.832 34.1997 141.976C35.0836 135.196 34.3584 126.795 33.706 121.725C32.797 114.664 31.3561 107.604 29.6431 100.694C29.1244 98.6019 28.5815 96.4896 27.9962 94.3967C28.0264 94.393 28.0562 94.3887 28.0864 94.3849C29.0166 96.465 29.8883 98.5952 30.7264 100.704H30.7259ZM28.4573 122.401C29.0393 126.922 29.9544 136.844 28.5641 143.678C28.4989 143.857 28.4526 144.045 28.427 144.241C28.4218 144.283 28.4171 144.325 28.4138 144.367C27.7108 147.395 26.5156 149.931 24.5824 151.353C24.3056 151.556 24.0197 151.732 23.7249 151.883C23.7566 151.545 23.7849 151.221 23.8104 150.915C24.4506 143.186 24.0183 133.993 23.432 126.264C22.8207 118.21 21.9103 110.157 20.8341 102.152C20.4623 99.386 20.0763 96.6101 19.6521 93.8459C20.5946 94.0774 21.5404 94.255 22.4872 94.3755C23.2194 96.8864 23.8808 99.4423 24.5068 101.966C26.1707 108.679 27.5748 115.54 28.4578 122.401H28.4573ZM18.0609 154.461C17.9849 154.69 17.9391 154.932 17.9296 155.184C17.7387 156.161 17.4969 157.114 17.186 157.993C16.9909 158.544 16.3446 160.132 15.7144 160.352C15.0034 160.6 13.4448 159.378 12.4574 158.499L12.457 96.328C13.1751 96.1315 13.879 95.8934 14.5683 95.6137C14.9306 98.0259 15.2656 100.446 15.5897 102.858C16.6526 110.761 17.5521 118.712 18.1554 126.664C18.7195 134.104 19.1527 143.038 18.5362 150.478C18.4313 151.741 18.2891 153.112 18.0605 154.461H18.0609ZM182.837 12.4676H7.16572V6.60848H182.837V12.4676ZM7.16572 18.1368V94.1558C7.16524 94.1737 7.16524 94.1926 7.16572 94.2106L7.16619 159.641C3.50201 159.641 0.513885 162.188 0.513885 165.311V171.17C0.513885 174.293 3.50201 176.839 7.16619 176.839H182.837C186.501 176.839 189.489 174.292 189.489 171.17V165.311C189.489 162.188 186.501 159.641 182.837 159.641L182.837 94.2106C182.837 94.1926 182.837 94.1737 182.837 94.1558V18.1368C186.501 18.1368 189.489 15.5899 189.489 12.4676V6.60848C189.489 3.48571 186.501 0.939301 182.837 0.939301H7.16572C3.50154 0.939301 0.512939 3.48618 0.512939 6.60848V12.4676C0.531364 15.9187 2.7258 18.3371 7.16572 18.1368ZM153.289 140.846C148.886 136.764 152.37 122.752 153.731 117.84C155.252 112.349 157.172 105.998 159.277 100.703C160.115 98.5947 160.986 96.4645 161.916 94.3844C161.947 94.3882 161.976 94.3924 162.007 94.3962C161.421 96.4891 160.878 98.6013 160.36 100.693C158.647 107.604 157.206 115.581 156.297 122.643C155.645 127.712 154.92 135.196 155.804 141.976C154.873 141.832 153.991 141.497 153.289 140.846L153.289 140.846ZM161.439 143.678C160.049 136.844 160.964 127.84 161.546 123.318C162.429 116.458 163.832 108.679 165.496 101.966C166.122 99.4423 166.783 96.8869 167.516 94.3755C168.462 94.2555 169.408 94.0774 170.351 93.8459C169.927 96.6101 169.541 99.386 169.169 102.152C168.093 110.157 167.182 119.128 166.571 127.182C165.985 134.911 165.553 143.186 166.193 150.914C166.218 151.221 166.247 151.545 166.278 151.883C165.984 151.732 165.697 151.556 165.421 151.353C163.488 149.93 162.293 147.394 161.59 144.367C161.586 144.325 161.581 144.283 161.576 144.241C161.551 144.045 161.504 143.856 161.439 143.678V143.678ZM172.074 155.184C172.064 154.932 172.018 154.689 171.942 154.461C171.714 153.112 171.571 151.742 171.467 150.478C170.85 143.038 171.283 135.022 171.847 127.582C172.451 119.63 173.35 110.761 174.413 102.858C174.737 100.446 175.072 98.0259 175.435 95.6137C176.123 95.8934 176.828 96.1315 177.546 96.328L177.546 158.499C176.559 159.378 175 160.6 174.289 160.352C173.659 160.132 173.013 158.544 172.818 157.993C172.507 157.115 172.265 156.161 172.074 155.184H172.074ZM120.562 58.6067C116.985 49.0508 114.358 38.9545 112.355 28.9531C111.621 25.2865 110.918 21.5047 110.376 17.7583H177.545V90.7495C176.523 90.3404 175.56 89.8089 174.653 89.1683L173.997 88.6789C161.199 78.5943 160.142 46.1836 160.804 33.7591C160.881 32.304 159.758 31.054 158.302 30.9765C156.847 30.899 155.597 32.0225 155.52 33.478C155.333 36.9816 155.361 40.6094 155.458 44.112C155.667 51.6473 156.346 59.3324 157.82 66.7278C159.281 74.0614 161.9 82.8788 166.954 89.113C166.474 89.1768 165.994 89.2217 165.514 89.2458C165.429 89.2453 165.344 89.2491 165.26 89.2571C164.238 89.294 163.217 89.2378 162.197 89.0786C162.065 89.0455 161.931 89.0228 161.795 89.01C160.842 88.8352 159.891 88.5678 158.944 88.1993C149.5 84.5229 143.55 71.9907 140.289 63.0995C137.454 55.3724 135.429 47.1875 133.93 39.0981C133.233 35.3427 132.585 31.4324 132.193 27.6279C132.044 26.178 130.74 25.1174 129.291 25.2667C127.841 25.4155 126.78 26.7194 126.93 28.1688C127.335 32.116 128.005 36.1662 128.727 40.0623C130.281 48.4456 132.384 56.9135 135.321 64.9212C138.747 74.2622 144.359 85.7356 153.317 91.273C150.464 91.6278 147.572 91.401 144.683 90.3976C132.527 86.1764 124.743 69.7778 120.561 58.6062L120.562 58.6067ZM7.16619 165.31H182.837V171.169H7.16619V165.31Z" fill="#394A59"/>
</svg>
