<svg width="90" height="198" viewBox="0 0 90 198" fill="none" xmlns="http://www.w3.org/2000/svg">
<path d="M71.5 175.475C71.5 176.855 72.6193 177.975 74 177.975C75.3807 177.975 76.5 176.855 76.5 175.475H71.5ZM67.5 175.475V172.975C66.4236 172.975 65.468 173.664 65.128 174.685L67.5 175.475ZM61 195L58.628 194.21C58.3742 194.973 58.5023 195.81 58.9722 196.462C59.4421 197.114 60.1966 197.5 61 197.5V195ZM80.5 175.475L82.872 174.685C82.532 173.664 81.5764 172.975 80.5 172.975V175.475ZM87 195V197.5C87.8034 197.5 88.5579 197.114 89.0278 196.462C89.4977 195.81 89.6258 194.973 89.372 194.21L87 195ZM71.5 0V175.475H76.5V0H71.5ZM65.128 174.685L58.628 194.21L63.372 195.79L69.872 176.264L65.128 174.685ZM78.128 176.264L84.628 195.79L89.372 194.21L82.872 174.685L78.128 176.264ZM61 197.5H87V192.5H61V197.5ZM67.5 177.975H80.5V172.975H67.5V177.975Z" fill="#06447D"/>
<path d="M13.5 119.475C13.5 120.855 14.6193 121.975 16 121.975C17.3807 121.975 18.5 120.855 18.5 119.475H13.5ZM9.5 119.475V116.975C8.42356 116.975 7.46798 117.664 7.12798 118.685L9.5 119.475ZM3 139L0.627983 138.21C0.374212 138.973 0.502275 139.81 0.97218 140.462C1.44209 141.114 2.19656 141.5 3 141.5V139ZM22.5 119.475L24.872 118.685C24.532 117.664 23.5764 116.975 22.5 116.975V119.475ZM29 139V141.5C29.8034 141.5 30.5579 141.114 31.0278 140.462C31.4977 139.81 31.6258 138.973 31.372 138.21L29 139ZM13.5 0V119.475H18.5V0H13.5ZM7.12798 118.685L0.627983 138.21L5.37202 139.79L11.872 120.264L7.12798 118.685ZM20.128 120.264L26.628 139.79L31.372 138.21L24.872 118.685L20.128 120.264ZM3 141.5H29V136.5H3V141.5ZM9.5 121.975H22.5V116.975H9.5V121.975Z" fill="#06447D"/>
</svg>
