<svg width="162" height="176" viewBox="0 0 162 176" fill="none" xmlns="http://www.w3.org/2000/svg">
<path fill-rule="evenodd" clip-rule="evenodd" d="M26.5387 92.6015V15.4299L17.0899 21.3199V92.6015V163.883L26.5387 169.773V92.6015ZM41.6579 92.6015V15.4299L32.2091 21.3199V92.6015V163.883L41.6579 169.773V92.6015ZM56.7772 92.6015V15.4299L47.3284 21.3199V92.6015V163.883L56.7772 169.773V92.6015ZM71.8965 92.6015V15.4299L62.4476 21.3199V92.6015V163.883L71.8965 169.773V92.6015ZM87.0157 92.6015V15.4299L77.5668 21.3199V92.6015V163.883L87.0157 169.773V92.6015ZM102.135 92.6015V15.4299L92.6861 21.3199V92.6015V163.883L102.135 169.773V92.6015ZM117.254 92.6015V15.4299L107.805 21.3199V92.6015V163.883L117.254 169.773V92.6015ZM132.373 92.6015V15.4299L122.925 21.3199V92.6015V163.883L132.373 169.773V92.6015ZM147.493 92.6015V15.4299L138.044 21.3199V92.6015V163.883L147.493 169.773V92.6015ZM153.162 17.1855V169.773C153.162 171.889 152.093 173.704 150.244 174.73C148.394 175.757 146.289 175.703 144.494 174.584L137.995 170.534C137.77 172.32 136.749 173.829 135.125 174.73C133.275 175.757 131.17 175.703 129.374 174.584L122.876 170.534C122.651 172.32 121.629 173.829 120.005 174.73C118.156 175.757 116.05 175.703 114.255 174.584L107.757 170.534C107.532 172.32 106.51 173.829 104.886 174.73C103.037 175.757 100.931 175.703 99.1359 174.584L92.6377 170.534C92.4125 172.32 91.3909 173.829 89.7668 174.73C87.9175 175.757 85.8119 175.703 84.0166 174.584L77.5185 170.534C77.2932 172.32 76.2716 173.829 74.6476 174.73C72.7982 175.757 70.6926 175.703 68.8974 174.584L62.3992 170.534C62.174 172.32 61.1524 173.829 59.5283 174.73C57.679 175.757 55.5734 175.703 53.7781 174.584L47.28 170.534C47.0547 172.32 46.0331 173.829 44.4091 174.73C42.5597 175.757 40.4542 175.703 38.6589 174.584L32.1608 170.534C31.9355 172.32 30.9139 173.829 29.2898 174.73C27.4405 175.757 25.3349 175.703 23.5396 174.584L14.0908 168.694C12.3813 167.629 11.4206 165.898 11.4206 163.883V21.3199C11.4206 19.6944 12.0461 18.2528 13.186 17.1976H5.66929V43.0753C5.66929 44.5323 4.48063 45.721 3.02362 45.721H2.64567C1.18866 45.721 0 44.5323 0 43.0753V11.5283V5.66929C0 2.54665 2.54665 0 5.66929 0H155.376C158.498 0 161.045 2.54665 161.045 5.66929V11.5283C161.045 14.6509 158.498 17.1976 155.376 17.1976L153.162 17.1855ZM5.66929 5.66929H155.376V11.5283H5.66929V5.66929Z" fill="#394A59"/>
</svg>
