<svg width="142" height="176" viewBox="0 0 142 176" fill="none" xmlns="http://www.w3.org/2000/svg">
<path fill-rule="evenodd" clip-rule="evenodd" d="M68.0387 119.556V170.23H13.1101V73.4793V73.4483H13.3807C19.1433 72.7208 23.6251 67.7764 23.6251 61.7934C23.6251 67.8403 28.2463 72.8425 34.1375 73.4483H36.7378C42.6289 72.8425 47.2501 67.8403 47.2501 61.7934C47.2501 67.8403 51.8714 72.8425 57.7625 73.4483H60.3628C63.419 73.1339 66.1342 71.636 68.0387 69.4231V113.984H63.6627V119.556H68.0387ZM73.708 170.23V119.556H78.0839V113.984H73.708V69.4186C75.6128 71.6341 78.3292 73.1339 81.3876 73.4483H83.9879C89.8791 72.8425 94.5003 67.8403 94.5003 61.7934C94.5003 67.8403 99.1215 72.8425 105.013 73.4483H107.613C113.504 72.8425 118.125 67.8403 118.125 61.7934C118.125 67.8399 122.746 72.8421 128.637 73.4483V170.23H73.708ZM35.3416 67.8406C35.0498 67.8406 34.7622 67.8195 34.481 67.779C31.5606 67.3576 29.2944 64.8253 29.2944 61.7934V51.1272H41.5809V61.7934C41.5809 64.8253 39.3147 67.3576 36.3942 67.779C36.113 67.8195 35.8254 67.8406 35.5336 67.8406H35.3416ZM58.9667 67.8406C58.6749 67.8406 58.3873 67.8195 58.1061 67.779C55.1856 67.3576 52.9194 64.8253 52.9194 61.7934V51.1272H65.2059V61.7934C65.2059 64.8253 62.9397 67.3576 60.0193 67.779C59.7381 67.8195 59.4505 67.8406 59.1587 67.8406H58.9667ZM82.5918 67.8406C82.3 67.8406 82.0124 67.8195 81.7312 67.779C78.8107 67.3576 76.5445 64.8253 76.5445 61.7934V51.1272H88.831V61.7934C88.831 64.8253 86.5648 67.3576 83.6444 67.779C83.3632 67.8195 83.0755 67.8406 82.7838 67.8406H82.5918ZM106.217 67.8406C105.925 67.8406 105.637 67.8195 105.356 67.779C102.436 67.3576 100.17 64.8253 100.17 61.7934V51.1272H112.456V61.7934C112.456 64.8253 110.19 67.3576 107.269 67.779C106.988 67.8195 106.701 67.8406 106.409 67.8406H106.217ZM134.306 73.4483C134.306 73.2741 134.298 73.101 134.282 72.9309C138.314 71.232 141.707 67.2208 141.707 62.5493V45.4447L139.754 40.6318L123.273 0H70.8733H18.4732L1.9922 40.6318L0 45.5433V61.824C0 66.6217 3.29576 71.116 7.46306 72.9449C7.4487 73.1108 7.44076 73.2786 7.44076 73.4483V170.23C7.44076 173.353 9.98741 175.9 13.1101 175.9H128.637C131.759 175.9 134.306 173.353 134.306 170.23V73.4483ZM12.946 67.7813C12.672 67.8293 12.3919 67.8588 12.107 67.8678C12.0412 67.8701 11.9751 67.8712 11.9085 67.8712H11.7165C8.39282 67.8712 5.66929 65.1477 5.66929 61.824V51.1272H17.9558V61.824C17.9558 64.7943 15.7807 67.285 12.946 67.7813ZM112.087 45.5433H95.8621L90.2166 5.66929H101.438L112.087 45.5433ZM90.1361 45.5433H73.708V5.66929H84.4906L90.1361 45.5433ZM129.842 67.8406C126.518 67.8406 123.795 65.1171 123.795 61.7934V51.1272H136.081V61.7934C136.081 65.1171 133.358 67.8406 130.034 67.8406H129.842ZM134.656 45.5433H117.955L107.306 5.66929H119.374L134.656 45.5433ZM45.8846 45.5433H29.6598L40.3083 5.66929H51.5301L45.8846 45.5433ZM68.0387 45.5433H51.6106L57.2561 5.66929H68.0387V45.5433ZM23.7921 45.5433H7.0904L22.3722 5.66929H34.4402L23.7921 45.5433ZM24.4494 118.8V81.0059H20.6699V118.8H24.4494ZM117.299 109.796V147.362H94.8541V151.141H121.079V109.796H117.299Z" fill="#394A59"/>
</svg>
