<svg width="180" height="51" viewBox="0 0 180 51" fill="none" xmlns="http://www.w3.org/2000/svg">
<path fill-rule="evenodd" clip-rule="evenodd" d="M19.3773 0H8.49711L0 15.1352H26.732V0.315801C24.7383 0.104479 22.2868 0 19.3773 0Z" fill="#3798F1"/>
<path fill-rule="evenodd" clip-rule="evenodd" d="M29.2842 0.694557V15.1352H45.0922C44.8557 14.3927 44.5889 13.6703 44.2925 12.9682C42.8259 9.46458 40.6133 6.59592 37.6415 4.33842C35.3633 2.59816 32.6137 1.3874 29.3928 0.717022C29.3567 0.709536 29.3207 0.701704 29.2842 0.694557Z" fill="#3798F1"/>
<path fill-rule="evenodd" clip-rule="evenodd" d="M26.732 17.6874H8.49711L0 32.8226L26.732 32.823V17.6874Z" fill="#145DA0"/>
<path fill-rule="evenodd" clip-rule="evenodd" d="M29.2842 17.6874V32.823H45.6578C46.254 30.2081 46.5051 27.5307 46.5051 24.9846C46.5051 22.3872 46.2608 19.9541 45.7708 17.6874H29.2842Z" fill="#145DA0"/>
<path fill-rule="evenodd" clip-rule="evenodd" d="M26.732 35.3748H8.49711L0 50.51H20.2937C22.6223 50.51 24.7669 50.3776 26.732 50.1102V35.3748Z" fill="#06447D"/>
<path fill-rule="evenodd" clip-rule="evenodd" d="M29.2842 35.3748V49.6641C29.303 49.6603 29.3224 49.6559 29.3407 49.6518C31.9593 49.076 34.1981 48.229 36.0438 47.1119C37.9032 46.0069 39.6098 44.4814 41.1765 42.5383C42.8892 40.4142 44.1122 37.9566 44.9544 35.3748H29.2842Z" fill="#06447D"/>
<path d="M63.9014 11.3652C66.971 11.3652 69.6534 11.9736 71.9487 13.1904C74.244 14.4072 76.0139 16.1217 77.2583 18.334C78.5304 20.5187 79.1664 23.0491 79.1664 25.9251C79.1664 28.7734 78.5304 31.3038 77.2583 33.5161C76.0139 35.7284 74.2302 37.443 71.9072 38.6597C69.612 39.8765 66.9433 40.4849 63.9014 40.4849H52.9919V11.3652H63.9014ZM63.4451 34.3457C66.1275 34.3457 68.2154 33.6129 69.7087 32.1472C71.2021 30.6816 71.9487 28.6075 71.9487 25.9251C71.9487 23.2426 71.2021 21.1548 69.7087 19.6614C68.2154 18.1681 66.1275 17.4215 63.4451 17.4215H60.0851V34.3457H63.4451Z" fill="#394A59"/>
<path d="M105.987 17.3385V40.4849H98.8932V37.3324C98.1742 38.3556 97.1925 39.1852 95.9481 39.8212C94.7313 40.4296 93.3763 40.7338 91.8829 40.7338C90.1131 40.7338 88.5506 40.3466 87.1956 39.5723C85.8405 38.7704 84.7897 37.6227 84.043 36.1294C83.2964 34.6361 82.923 32.8801 82.923 30.8613V17.3385H89.9748V29.9073C89.9748 31.4559 90.3758 32.6588 91.1778 33.5161C91.9797 34.3734 93.0583 34.802 94.4133 34.802C95.796 34.802 96.8883 34.3734 97.6903 33.5161C98.4923 32.6588 98.8932 31.4559 98.8932 29.9073V17.3385H105.987Z" fill="#394A59"/>
<path d="M118.175 21.1962C119.004 19.9241 120.041 18.9286 121.286 18.2096C122.53 17.4629 123.913 17.0896 125.434 17.0896V24.5977H123.484C121.715 24.5977 120.387 24.9848 119.502 25.7591C118.617 26.5058 118.175 27.8332 118.175 29.7413V40.4849H111.082V17.3385H118.175V21.1962Z" fill="#394A59"/>
<path d="M127.414 28.8702C127.414 26.492 127.857 24.4041 128.741 22.6066C129.654 20.8091 130.885 19.4264 132.433 18.4585C133.982 17.4906 135.71 17.0066 137.618 17.0066C139.25 17.0066 140.674 17.3385 141.891 18.0022C143.135 18.6659 144.089 19.537 144.753 20.6155V17.3385H151.846V40.4849H144.753V37.2079C144.062 38.2864 143.094 39.1575 141.849 39.8212C140.633 40.4849 139.208 40.8168 137.577 40.8168C135.696 40.8168 133.982 40.3328 132.433 39.3649C130.885 38.3694 129.654 36.9729 128.741 35.1753C127.857 33.3502 127.414 31.2485 127.414 28.8702ZM144.753 28.9117C144.753 27.1418 144.255 25.7453 143.26 24.7221C142.292 23.6989 141.103 23.1873 139.692 23.1873C138.282 23.1873 137.079 23.6989 136.084 24.7221C135.116 25.7177 134.632 27.1004 134.632 28.8702C134.632 30.6401 135.116 32.0504 136.084 33.1013C137.079 34.1245 138.282 34.6361 139.692 34.6361C141.103 34.6361 142.292 34.1245 143.26 33.1013C144.255 32.0781 144.753 30.6816 144.753 28.9117Z" fill="#394A59"/>
<path d="M171.082 17.0896C173.792 17.0896 175.949 17.9745 177.553 19.7444C179.184 21.4866 180 23.8925 180 26.9621V40.4849H172.948V27.9162C172.948 26.3675 172.547 25.1646 171.745 24.3073C170.943 23.45 169.865 23.0214 168.51 23.0214C167.155 23.0214 166.076 23.45 165.274 24.3073C164.472 25.1646 164.071 26.3675 164.071 27.9162V40.4849H156.978V17.3385H164.071V20.4081C164.79 19.3849 165.758 18.5829 166.975 18.0022C168.192 17.3938 169.561 17.0896 171.082 17.0896Z" fill="#394A59"/>
</svg>
